<svg width="80" height="34" viewBox="0 0 80 34" fill="none" xmlns="http://www.w3.org/2000/svg">
<rect x="46" width="34" height="34" rx="17" fill="#3456F3"/>
<path fill-rule="evenodd" clip-rule="evenodd" d="M64.7919 18.2639C63.36 19.6958 61.0384 19.6958 59.6065 18.2639C58.1746 16.832 58.1746 14.5104 59.6065 13.0784C61.0384 11.6465 63.36 11.6465 64.7919 13.0784C66.2239 14.5104 66.2239 16.832 64.7919 18.2639ZM65.2323 19.6469C63.2721 21.1462 60.4565 20.9995 58.6637 19.2067C56.7111 17.2541 56.7111 14.0883 58.6637 12.1356C60.6163 10.183 63.7821 10.183 65.7348 12.1356C67.5275 13.9284 67.6743 16.7438 66.1751 18.704L69.7418 22.2707L68.799 23.2135L65.2323 19.6469Z" fill="white"/>
</svg>
