<svg width="320" height="780" viewBox="0 0 320 780" fill="none" xmlns="http://www.w3.org/2000/svg">
<g clip-path="url(#clip0_730_6990)">
<rect width="320" height="780" fill="white"/>
<path d="M141 68.6667C141 64.2329 141 62.016 141.863 60.3226C142.622 58.833 143.833 57.6219 145.323 56.8629C147.016 56 149.233 56 153.667 56H166.333C170.767 56 172.984 56 174.677 56.8629C176.167 57.6219 177.378 58.833 178.137 60.3226C179 62.016 179 64.2329 179 68.6667V81.3333C179 85.7671 179 87.984 178.137 89.6774C177.378 91.167 176.167 92.3781 174.677 93.1371C172.984 94 170.767 94 166.333 94H153.667C149.233 94 147.016 94 145.323 93.1371C143.833 92.3781 142.622 91.167 141.863 89.6774C141 87.984 141 85.7671 141 81.3333V68.6667Z" fill="#2BE080"/>
<circle cx="160" cy="75" r="11" fill="white"/>
<path fill-rule="evenodd" clip-rule="evenodd" d="M156.154 75C156.154 77.1242 157.876 78.8462 160 78.8462C162.124 78.8462 163.846 77.1242 163.846 75H166C166 78.3137 163.314 81 160 81C156.686 81 154 78.3137 154 75H156.154Z" fill="#2BE080"/>
<path d="M82.0075 167H84.641V160.864H88.2205C92.2688 160.864 94.2717 158.418 94.2717 155.196C94.2717 151.983 92.2859 149.545 88.229 149.545H82.0075V167ZM84.641 158.631V151.804H87.9478C90.5558 151.804 91.6211 153.219 91.6211 155.196C91.6211 157.173 90.5558 158.631 87.9819 158.631H84.641ZM100.847 167.29C103.012 167.29 104.23 166.19 104.716 165.21H104.819V167H107.307V158.307C107.307 154.497 104.307 153.739 102.228 153.739C99.8583 153.739 97.6765 154.693 96.8242 157.08L99.2191 157.625C99.5941 156.696 100.549 155.801 102.262 155.801C103.907 155.801 104.75 156.662 104.75 158.145V158.205C104.75 159.134 103.796 159.116 101.444 159.389C98.9634 159.679 96.4237 160.327 96.4237 163.301C96.4237 165.875 98.3583 167.29 100.847 167.29ZM101.401 165.244C99.9606 165.244 98.9208 164.597 98.9208 163.335C98.9208 161.972 100.131 161.486 101.605 161.29C102.432 161.179 104.392 160.957 104.759 160.591V162.278C104.759 163.83 103.523 165.244 101.401 165.244ZM109.423 170.776H111.946V167H121.074V170.776H123.562V164.793H121.551V153.909H112.653L112.244 158.793C111.971 162.091 111.571 163.812 110.488 164.793H109.423V170.776ZM113.216 164.793C114.085 163.574 114.409 161.545 114.664 158.793L114.937 156.091H119.062V164.793H113.216ZM128.55 158.409V153.909H126.053V167H131.772C134.976 167 136.766 165.142 136.766 162.679C136.766 160.165 134.976 158.409 131.772 158.409H128.55ZM138.624 167H141.172V153.909H138.624V167ZM128.55 160.608H131.772C133.238 160.608 134.286 161.494 134.286 162.756C134.286 163.949 133.238 164.801 131.772 164.801H128.55V160.608ZM150.944 167H157.199C160.063 167 161.742 165.551 161.742 163.472C161.742 161.528 160.25 160.335 158.503 160.131C160.114 159.824 161.179 158.938 161.179 157.403C161.179 155.256 159.321 153.909 156.373 153.909H150.944V167ZM153.338 164.869V161.23H157.199C158.461 161.23 159.219 161.972 159.219 163.19C159.219 164.23 158.461 164.869 157.199 164.869H153.338ZM153.338 159.364V156.065H156.373C157.821 156.065 158.699 156.67 158.699 157.676C158.699 158.724 157.83 159.364 156.398 159.364H153.338ZM167.034 163.429V153.909H164.537V167H167.307L173.051 157.472V167H175.549V153.909H172.804L167.034 163.429ZM177.696 170.776H180.219V167H189.347V170.776H191.836V164.793H189.824V153.909H180.926L180.517 158.793C180.245 162.091 179.844 163.812 178.762 164.793H177.696V170.776ZM181.489 164.793C182.358 163.574 182.682 161.545 182.938 158.793L183.211 156.091H187.336V164.793H181.489ZM199.968 167.264C202.824 167.264 204.843 165.858 205.423 163.727L203.011 163.293C202.551 164.528 201.443 165.159 199.994 165.159C197.812 165.159 196.346 163.744 196.278 161.222H205.585V160.318C205.585 155.588 202.755 153.739 199.789 153.739C196.142 153.739 193.738 156.517 193.738 160.54C193.738 164.605 196.108 167.264 199.968 167.264ZM196.287 159.312C196.389 157.455 197.735 155.844 199.806 155.844C201.784 155.844 203.079 157.31 203.088 159.312H196.287ZM207.257 156.108H211.544V167H214.033V156.108H218.303V153.909H207.257V156.108ZM223.495 158.409V153.909H220.998V167H226.717C229.922 167 231.711 165.142 231.711 162.679C231.711 160.165 229.922 158.409 226.717 158.409H223.495ZM223.495 160.608H226.717C228.183 160.608 229.231 161.494 229.231 162.756C229.231 163.949 228.183 164.801 226.717 164.801H223.495V160.608ZM237.782 149.545H234.978L235.199 161.98H237.56L237.782 149.545ZM236.375 167.162C237.304 167.162 238.08 166.403 238.08 165.457C238.08 164.528 237.304 163.761 236.375 163.761C235.438 163.761 234.671 164.528 234.671 165.457C234.671 166.403 235.438 167.162 236.375 167.162Z" fill="black"/>
<path d="M208.176 747H209.233V743.812H211.142C213.175 743.812 214.091 742.577 214.091 741.034C214.091 739.491 213.175 738.273 211.125 738.273H208.176V747ZM209.233 742.875V739.21H211.091C212.51 739.21 213.051 739.986 213.051 741.034C213.051 742.082 212.51 742.875 211.108 742.875H209.233ZM218.331 747.136C219.66 747.136 220.632 746.472 220.939 745.483L219.967 745.21C219.711 745.892 219.119 746.233 218.331 746.233C217.15 746.233 216.336 745.47 216.29 744.068H221.041V743.642C221.041 741.205 219.592 740.369 218.229 740.369C216.456 740.369 215.28 741.767 215.28 743.778C215.28 745.79 216.439 747.136 218.331 747.136ZM216.29 743.199C216.358 742.18 217.078 741.273 218.229 741.273C219.319 741.273 220.018 742.091 220.018 743.199H216.29ZM226.611 740.455H222.571V747H223.577V741.392H226.611V740.455ZM229.084 745.517V740.455H228.079V747H229.255L232.391 741.938V747H233.397V740.455H232.238L229.084 745.517ZM237.898 747.136C239.347 747.136 240.301 746.25 240.472 745.091H239.466C239.279 745.807 238.682 746.233 237.898 746.233C236.705 746.233 235.938 745.244 235.938 743.727C235.938 742.244 236.722 741.273 237.898 741.273C238.784 741.273 239.313 741.818 239.466 742.415H240.472C240.301 741.188 239.262 740.369 237.881 740.369C236.108 740.369 234.932 741.767 234.932 743.761C234.932 745.722 236.057 747.136 237.898 747.136ZM241.426 741.392H243.591V747H244.597V741.392H246.744V740.455H241.426V741.392ZM248.211 749.455H249.217V745.994H249.302C249.524 746.352 249.95 747.136 251.211 747.136C252.848 747.136 253.99 745.824 253.99 743.744C253.99 741.682 252.848 740.369 251.194 740.369C249.916 740.369 249.524 741.153 249.302 741.494H249.183V740.455H248.211V749.455ZM249.2 743.727C249.2 742.261 249.848 741.273 251.075 741.273C252.354 741.273 252.984 742.347 252.984 743.727C252.984 745.125 252.336 746.233 251.075 746.233C249.865 746.233 249.2 745.21 249.2 743.727ZM257.45 747.153C258.592 747.153 259.189 746.54 259.393 746.114H259.444V747H260.45V742.688C260.45 740.608 258.865 740.369 258.03 740.369C257.041 740.369 255.916 740.71 255.405 741.903L256.359 742.244C256.581 741.767 257.105 741.256 258.064 741.256C258.988 741.256 259.444 741.746 259.444 742.585V742.619C259.444 743.105 258.95 743.062 257.757 743.216C256.542 743.374 255.217 743.642 255.217 745.142C255.217 746.42 256.206 747.153 257.45 747.153ZM257.604 746.25C256.802 746.25 256.223 745.892 256.223 745.193C256.223 744.426 256.922 744.188 257.706 744.085C258.132 744.034 259.274 743.915 259.444 743.71V744.631C259.444 745.449 258.797 746.25 257.604 746.25ZM267.433 740.455H266.428V746.062H263.291V740.455H262.286V747H267.433V749.114H268.439V746.062H267.433V740.455ZM270.909 745.517V740.455H269.903V747H271.079L274.215 741.938V747H275.221V740.455H274.062L270.909 745.517ZM281.001 747H281.955V740.455H279.262C277.851 740.455 276.995 741.192 276.995 742.398C276.995 743.297 277.447 743.936 278.235 744.205L276.637 747H277.728L279.245 744.341H281.001V747ZM281.001 743.403H279.143C278.431 743.403 278.001 743.024 278.001 742.398C278.001 741.763 278.478 741.375 279.262 741.375H281.001V743.403Z" fill="#3456F3"/>
<rect x="30" y="676" width="260" height="45" rx="3" fill="#3456F3"/>
<path d="M142.17 703H145.515C147.543 703 148.46 701.99 148.46 700.652C148.46 699.301 147.513 698.538 146.648 698.491V698.406C147.45 698.202 148.119 697.656 148.119 696.565C148.119 695.274 147.224 694.273 145.366 694.273H142.17V703ZM143.487 701.871V699.075H145.434C146.491 699.075 147.151 699.757 147.151 700.588C147.151 701.321 146.653 701.871 145.387 701.871H143.487ZM143.487 698.048V695.393H145.285C146.329 695.393 146.827 695.943 146.827 696.668C146.827 697.511 146.137 698.048 145.251 698.048H143.487ZM152.676 703.132C154.521 703.132 155.727 701.781 155.727 699.757C155.727 697.72 154.521 696.369 152.676 696.369C150.831 696.369 149.625 697.72 149.625 699.757C149.625 701.781 150.831 703.132 152.676 703.132ZM152.68 702.062C151.474 702.062 150.912 701.01 150.912 699.753C150.912 698.5 151.474 697.435 152.68 697.435C153.878 697.435 154.44 698.5 154.44 699.753C154.44 701.01 153.878 702.062 152.68 702.062ZM158.398 701.214V696.455H157.15V703H158.534L161.407 698.236V703H162.655V696.455H161.283L158.398 701.214ZM160.738 694.239C160.738 694.669 160.499 695.048 159.902 695.048C159.297 695.048 159.071 694.665 159.071 694.239H158.027C158.027 695.197 158.756 695.858 159.902 695.858C161.057 695.858 161.786 695.197 161.786 694.239H160.738ZM163.556 697.554H165.7V703H166.944V697.554H169.079V696.455H163.556V697.554ZM171.675 701.214V696.455H170.427V703H171.812L174.684 698.236V703H175.933V696.455H174.56L171.675 701.214Z" fill="white"/>
<path d="M38.3869 747H43.7221V746.062H39.4437V743.097H43.3812V742.159H39.4437V739.21H43.6539V738.273H38.3869V747ZM54.3542 746.062H53.3826V740.455H52.377V746.062H49.9054V740.455H48.8997V746.062H46.4281V740.455H45.4224V747H53.1951V748.875H54.2349L54.3542 746.062ZM58.4909 747.136C59.8205 747.136 60.7921 746.472 61.0989 745.483L60.1273 745.21C59.8716 745.892 59.2793 746.233 58.4909 746.233C57.3105 746.233 56.4966 745.47 56.4498 744.068H61.2012V743.642C61.2012 741.205 59.7523 740.369 58.3887 740.369C56.6159 740.369 55.4398 741.767 55.4398 743.778C55.4398 745.79 56.5989 747.136 58.4909 747.136ZM56.4498 743.199C56.5179 742.18 57.2381 741.273 58.3887 741.273C59.4796 741.273 60.1784 742.091 60.1784 743.199H56.4498ZM57.1103 739.364C57.5023 739.364 57.7921 739.04 57.7921 738.682C57.7921 738.29 57.5023 738 57.1103 738C56.7523 738 56.4284 738.29 56.4284 738.682C56.4284 739.04 56.7523 739.364 57.1103 739.364ZM59.5648 739.364C59.9569 739.364 60.2466 739.04 60.2466 738.682C60.2466 738.29 59.9569 738 59.5648 738C59.2069 738 58.883 738.29 58.883 738.682C58.883 739.04 59.2069 739.364 59.5648 739.364ZM67.1117 740.455H66.106V747H67.1117V744.205H70.248V747H71.2537V740.455H70.248V743.267H67.1117V740.455ZM75.8347 747.136C77.1642 747.136 78.1358 746.472 78.4426 745.483L77.4711 745.21C77.2154 745.892 76.623 746.233 75.8347 746.233C74.6543 746.233 73.8404 745.47 73.7935 744.068H78.5449V743.642C78.5449 741.205 77.0961 740.369 75.7324 740.369C73.9597 740.369 72.7836 741.767 72.7836 743.778C72.7836 745.79 73.9426 747.136 75.8347 747.136ZM73.7935 743.199C73.8617 742.18 74.5819 741.273 75.7324 741.273C76.8233 741.273 77.5222 742.091 77.5222 743.199H73.7935ZM83.0407 745.33C83.0748 746.403 84.1017 747.136 85.4952 747.136C86.927 747.136 87.9668 746.369 87.9668 745.176C87.9668 744.358 87.4767 743.693 86.7395 743.642V743.574C87.3617 743.382 87.8304 742.93 87.8304 742.193C87.8304 741.158 86.9441 740.369 85.5634 740.369C84.1998 740.369 83.2282 741.119 83.1941 742.176H84.2509C84.2807 741.635 84.8475 741.256 85.6145 741.256C86.3773 741.256 86.8077 741.643 86.8077 742.227C86.8077 742.773 86.4327 743.182 85.6316 743.182H84.5066V744.085H85.6316C86.4327 744.085 86.9441 744.524 86.9441 745.176C86.9441 745.922 86.2836 746.233 85.4782 746.233C84.6898 746.233 84.1614 745.922 84.1145 745.33H83.0407ZM91.3056 747.153C92.4476 747.153 93.0442 746.54 93.2488 746.114H93.2999V747H94.3056V742.688C94.3056 740.608 92.7203 740.369 91.8851 740.369C90.8965 740.369 89.7715 740.71 89.2601 741.903L90.2147 742.244C90.4363 741.767 90.9604 741.256 91.9192 741.256C92.8439 741.256 93.2999 741.746 93.2999 742.585V742.619C93.2999 743.105 92.8056 743.062 91.6124 743.216C90.3979 743.374 89.0726 743.642 89.0726 745.142C89.0726 746.42 90.0613 747.153 91.3056 747.153ZM91.459 746.25C90.6578 746.25 90.0783 745.892 90.0783 745.193C90.0783 744.426 90.7772 744.188 91.5613 744.085C91.9874 744.034 93.1294 743.915 93.2999 743.71V744.631C93.2999 745.449 92.6522 746.25 91.459 746.25ZM96.1412 749.455H97.1468V745.994H97.2321C97.4537 746.352 97.8798 747.136 99.1412 747.136C100.778 747.136 101.92 745.824 101.92 743.744C101.92 741.682 100.778 740.369 99.1241 740.369C97.8457 740.369 97.4537 741.153 97.2321 741.494H97.1127V740.455H96.1412V749.455ZM97.1298 743.727C97.1298 742.261 97.7775 741.273 99.0048 741.273C100.283 741.273 100.914 742.347 100.914 743.727C100.914 745.125 100.266 746.233 99.0048 746.233C97.7946 746.233 97.1298 745.21 97.1298 743.727ZM106.198 747.136C107.528 747.136 108.499 746.472 108.806 745.483L107.834 745.21C107.579 745.892 106.986 746.233 106.198 746.233C105.018 746.233 104.204 745.47 104.157 744.068H108.908V743.642C108.908 741.205 107.459 740.369 106.096 740.369C104.323 740.369 103.147 741.767 103.147 743.778C103.147 745.79 104.306 747.136 106.198 747.136ZM104.157 743.199C104.225 742.18 104.945 741.273 106.096 741.273C107.187 741.273 107.885 742.091 107.885 743.199H104.157ZM114.478 740.455H110.438V747H111.444V741.392H114.478V740.455ZM116.952 745.517V740.455H115.946V747H117.122L120.258 741.938V747H121.264V740.455H120.105L116.952 745.517ZM125.765 747.136C127.214 747.136 128.169 746.25 128.339 745.091H127.333C127.146 745.807 126.549 746.233 125.765 746.233C124.572 746.233 123.805 745.244 123.805 743.727C123.805 742.244 124.589 741.273 125.765 741.273C126.651 741.273 127.18 741.818 127.333 742.415H128.339C128.169 741.188 127.129 740.369 125.748 740.369C123.975 740.369 122.799 741.767 122.799 743.761C122.799 745.722 123.924 747.136 125.765 747.136ZM129.294 741.392H131.458V747H132.464V741.392H134.612V740.455H129.294V741.392ZM136.079 749.455H137.084V745.994H137.17C137.391 746.352 137.817 747.136 139.079 747.136C140.715 747.136 141.857 745.824 141.857 743.744C141.857 741.682 140.715 740.369 139.062 740.369C137.783 740.369 137.391 741.153 137.17 741.494H137.05V740.455H136.079V749.455ZM137.067 743.727C137.067 742.261 137.715 741.273 138.942 741.273C140.221 741.273 140.851 742.347 140.851 743.727C140.851 745.125 140.204 746.233 138.942 746.233C137.732 746.233 137.067 745.21 137.067 743.727ZM144.397 745.517V740.455H143.391V747H144.567L147.704 741.938V747H148.709V740.455H147.55L144.397 745.517ZM150.551 749.455H151.557V745.994H151.642C151.864 746.352 152.29 747.136 153.551 747.136C155.188 747.136 156.33 745.824 156.33 743.744C156.33 741.682 155.188 740.369 153.534 740.369C152.256 740.369 151.864 741.153 151.642 741.494H151.523V740.455H150.551V749.455ZM151.54 743.727C151.54 742.261 152.188 741.273 153.415 741.273C154.693 741.273 155.324 742.347 155.324 743.727C155.324 745.125 154.676 746.233 153.415 746.233C152.205 746.233 151.54 745.21 151.54 743.727ZM160.523 747.136C162.296 747.136 163.489 745.79 163.489 743.761C163.489 741.716 162.296 740.369 160.523 740.369C158.75 740.369 157.557 741.716 157.557 743.761C157.557 745.79 158.75 747.136 160.523 747.136ZM160.523 746.233C159.176 746.233 158.563 745.074 158.563 743.761C158.563 742.449 159.176 741.273 160.523 741.273C161.869 741.273 162.483 742.449 162.483 743.761C162.483 745.074 161.869 746.233 160.523 746.233ZM165.024 747H168.109C169.439 747 170.24 746.25 170.24 745.244C170.24 744.217 169.46 743.663 168.74 743.557C169.477 743.403 170.001 742.99 170.001 742.193C170.001 741.149 169.106 740.455 167.7 740.455H165.024V747ZM165.979 746.08V744.068H168.109C168.8 744.068 169.217 744.482 169.217 745.159C169.217 745.73 168.8 746.08 168.109 746.08H165.979ZM165.979 743.199V741.375H167.7C168.506 741.375 168.996 741.712 168.996 742.261C168.996 742.845 168.506 743.199 167.7 743.199H165.979ZM173.688 747.153C174.83 747.153 175.427 746.54 175.632 746.114H175.683V747H176.688V742.688C176.688 740.608 175.103 740.369 174.268 740.369C173.279 740.369 172.154 740.71 171.643 741.903L172.597 742.244C172.819 741.767 173.343 741.256 174.302 741.256C175.227 741.256 175.683 741.746 175.683 742.585V742.619C175.683 743.105 175.188 743.062 173.995 743.216C172.781 743.374 171.455 743.642 171.455 745.142C171.455 746.42 172.444 747.153 173.688 747.153ZM173.842 746.25C173.041 746.25 172.461 745.892 172.461 745.193C172.461 744.426 173.16 744.188 173.944 744.085C174.37 744.034 175.512 743.915 175.683 743.71V744.631C175.683 745.449 175.035 746.25 173.842 746.25ZM179.53 740.455H178.524V747H179.53V744.205H182.666V747H183.672V740.455H182.666V743.267H179.53V740.455ZM186.514 742.824V740.455H185.508V747H188.253C189.787 747 190.622 746.062 190.622 744.886C190.622 743.693 189.787 742.824 188.253 742.824H186.514ZM191.662 747H192.667V740.455H191.662V747ZM186.514 743.761H188.253C189.05 743.761 189.616 744.247 189.616 744.938C189.616 745.598 189.05 746.062 188.253 746.062H186.514V743.761ZM195.821 744.545H196.844V744.494C196.861 743.438 197.133 742.977 197.883 742.509C198.633 742.053 199.077 741.396 199.077 740.455C199.077 739.125 198.105 738.153 196.605 738.153C195.224 738.153 194.129 739.006 194.065 740.455H195.139C195.203 739.449 195.906 739.04 196.605 739.04C197.406 739.04 198.054 739.568 198.054 740.403C198.054 741.081 197.666 741.567 197.167 741.869C196.332 742.376 195.834 742.871 195.821 744.494V744.545ZM196.366 747.068C196.788 747.068 197.133 746.723 197.133 746.301C197.133 745.879 196.788 745.534 196.366 745.534C195.944 745.534 195.599 745.879 195.599 746.301C195.599 746.723 195.944 747.068 196.366 747.068Z" fill="#A0A0A0"/>
<rect y="253" width="320" height="156" fill="white"/>
<rect x="30" y="275" width="260" height="46" rx="8" fill="#F9F9F9"/>
<rect x="30" y="363" width="260" height="46" rx="8" fill="#F9F9F9"/>
<path d="M30.8807 263H35.3267V262.219H31.7614V259.747H35.0426V258.966H31.7614V256.509H35.2699V255.727H30.8807V263ZM39.8686 259.491H36.6868V260.273H39.8686V259.491ZM41.3432 263H42.1813V259.591C42.1813 258.792 42.7637 258.227 43.4171 258.227C44.0527 258.227 44.4966 258.643 44.4966 259.264V263H45.3489V259.449C45.3489 258.746 45.7892 258.227 46.5563 258.227C47.1529 258.227 47.6642 258.543 47.6642 259.349V263H48.5023V259.349C48.5023 258.067 47.8134 257.474 46.8404 257.474C46.0591 257.474 45.4874 257.833 45.2069 258.398H45.15C44.8801 257.815 44.4043 257.474 43.687 257.474C42.9767 257.474 42.4512 257.815 42.2239 258.398H42.1529V257.545H41.3432V263ZM51.6397 263.128C52.5914 263.128 53.0886 262.616 53.2591 262.261H53.3017V263H54.1397V259.406C54.1397 257.673 52.8187 257.474 52.1227 257.474C51.2988 257.474 50.3613 257.759 49.9352 258.753L50.7306 259.037C50.9153 258.639 51.3521 258.213 52.1511 258.213C52.9217 258.213 53.3017 258.621 53.3017 259.321V259.349C53.3017 259.754 52.8897 259.719 51.8954 259.847C50.8833 259.978 49.7789 260.202 49.7789 261.452C49.7789 262.517 50.6028 263.128 51.6397 263.128ZM51.7676 262.375C51.1 262.375 50.617 262.077 50.617 261.494C50.617 260.855 51.1994 260.656 51.8528 260.571C52.2079 260.528 53.1596 260.429 53.3017 260.259V261.026C53.3017 261.707 52.7619 262.375 51.7676 262.375ZM55.6694 263H56.5075V257.545H55.6694V263ZM56.0955 256.636C56.4222 256.636 56.6921 256.381 56.6921 256.068C56.6921 255.756 56.4222 255.5 56.0955 255.5C55.7688 255.5 55.4989 255.756 55.4989 256.068C55.4989 256.381 55.7688 256.636 56.0955 256.636ZM58.8805 255.727H58.0424V263H58.8805V255.727Z" fill="#A0A0A0"/>
<path d="M45.9279 305.659H47.3082V301.897H47.3913C47.6406 302.349 48.1484 303.138 49.4411 303.138C51.1584 303.138 52.4048 301.763 52.4048 299.468C52.4048 297.169 51.1399 295.817 49.4272 295.817C48.1115 295.817 47.636 296.62 47.3913 297.059H47.2759V295.909H45.9279V305.659ZM47.2805 299.455C47.2805 297.973 47.9268 296.989 49.1317 296.989C50.3828 296.989 51.0107 298.047 51.0107 299.455C51.0107 300.876 50.3643 301.961 49.1317 301.961C47.9453 301.961 47.2805 300.946 47.2805 299.455ZM56.9382 303.143C58.9371 303.143 60.2436 301.68 60.2436 299.487C60.2436 297.28 58.9371 295.817 56.9382 295.817C54.9393 295.817 53.6328 297.28 53.6328 299.487C53.6328 301.68 54.9393 303.143 56.9382 303.143ZM56.9428 301.984C55.6364 301.984 55.027 300.844 55.027 299.482C55.027 298.125 55.6364 296.971 56.9428 296.971C58.2401 296.971 58.8494 298.125 58.8494 299.482C58.8494 300.844 58.2401 301.984 56.9428 301.984ZM64.7712 303.143C66.447 303.143 67.5319 302.137 67.6842 300.756H66.3408C66.1654 301.523 65.5699 301.975 64.7805 301.975C63.6125 301.975 62.86 301.001 62.86 299.455C62.86 297.936 63.6263 296.98 64.7805 296.98C65.6576 296.98 66.1931 297.534 66.3408 298.199H67.6842C67.5365 296.768 66.3685 295.817 64.7574 295.817C62.7584 295.817 61.4658 297.322 61.4658 299.487C61.4658 301.624 62.7123 303.143 64.7712 303.143ZM70.5407 298.79C70.5407 297.659 71.2562 297.012 72.2395 297.012C73.1905 297.012 73.7583 297.617 73.7583 298.656V303H75.1387V298.49C75.1387 296.722 74.1692 295.817 72.7104 295.817C71.6071 295.817 70.9423 296.297 70.6099 297.063H70.5222V293.545H69.1603V303H70.5407V298.79ZM80.2907 295.909H78.8365V294.21H77.4561V295.909H76.4174V297.017H77.4561V301.204C77.4515 302.492 78.4348 303.115 79.5243 303.092C79.9629 303.088 80.2583 303.005 80.4199 302.945L80.1706 301.804C80.0783 301.823 79.9075 301.864 79.6859 301.864C79.2381 301.864 78.8365 301.717 78.8365 300.918V297.017H80.2907V295.909ZM83.8811 303.157C85.0537 303.157 85.7139 302.561 85.977 302.031H86.0324V303H87.3804V298.291C87.3804 296.228 85.7554 295.817 84.629 295.817C83.3456 295.817 82.1638 296.334 81.7021 297.626L82.9994 297.922C83.2025 297.419 83.7195 296.934 84.6475 296.934C85.5384 296.934 85.9955 297.4 85.9955 298.203V298.236C85.9955 298.739 85.4784 298.73 84.2043 298.877C82.8609 299.034 81.4852 299.385 81.4852 300.996C81.4852 302.391 82.5331 303.157 83.8811 303.157ZM84.1812 302.049C83.401 302.049 82.8378 301.698 82.8378 301.015C82.8378 300.276 83.4933 300.013 84.292 299.907C84.7398 299.847 85.8016 299.727 86.0001 299.528V300.442C86.0001 301.283 85.3307 302.049 84.1812 302.049ZM94.911 305.571C95.9775 305.571 97.21 305.281 97.7825 305.013L97.4593 304.002C97.0716 304.14 96.0051 304.477 94.9711 304.477C91.8642 304.477 90.1976 302.765 90.1976 299.699C90.1976 296.763 91.8457 294.866 94.8002 294.866C97.5009 294.866 99.112 296.602 99.1074 298.947C99.112 300.95 98.8535 301.85 98.0133 301.85C97.5378 301.85 97.2747 301.463 97.2747 300.978V296.694H96.139V297.211H96.079C95.9405 296.805 95.1373 296.44 94.1724 296.555C92.8382 296.712 91.6934 297.816 91.6934 299.635C91.6934 301.532 92.6628 302.801 94.2186 302.862C95.2711 302.908 95.9544 302.418 96.1713 301.874H96.2267C96.3375 302.617 97.1408 302.945 97.9302 302.917C99.9015 302.88 100.275 300.941 100.275 298.993C100.275 296.214 98.3734 293.795 94.8464 293.795C91.1486 293.795 88.9743 296.052 88.9696 299.69C88.9743 303.434 91.0932 305.571 94.911 305.571ZM94.4863 301.73C93.2814 301.73 92.8659 300.696 92.8613 299.579C92.8659 298.517 93.4615 297.673 94.5048 297.673C95.6358 297.673 96.1436 298.171 96.1483 299.575C96.1529 301.015 95.6866 301.73 94.4863 301.73ZM102.672 305.641C103.813 305.641 104.538 305.045 104.944 303.946L107.875 295.923L106.384 295.909L104.588 301.412H104.514L102.719 295.909H101.241L103.836 303.092L103.665 303.563C103.314 304.482 102.82 304.565 102.063 304.357L101.731 305.488C101.897 305.567 102.257 305.641 102.672 305.641ZM111.024 303.157C112.196 303.157 112.856 302.561 113.12 302.031H113.175V303H114.523V298.291C114.523 296.228 112.898 295.817 111.772 295.817C110.488 295.817 109.306 296.334 108.845 297.626L110.142 297.922C110.345 297.419 110.862 296.934 111.79 296.934C112.681 296.934 113.138 297.4 113.138 298.203V298.236C113.138 298.739 112.621 298.73 111.347 298.877C110.003 299.034 108.628 299.385 108.628 300.996C108.628 302.391 109.676 303.157 111.024 303.157ZM111.324 302.049C110.544 302.049 109.98 301.698 109.98 301.015C109.98 300.276 110.636 300.013 111.435 299.907C111.882 299.847 112.944 299.727 113.143 299.528V300.442C113.143 301.283 112.473 302.049 111.324 302.049ZM117.742 298.79C117.742 297.659 118.434 297.012 119.395 297.012C120.332 297.012 120.9 297.626 120.9 298.656V303H122.28V298.49C122.28 296.735 121.315 295.817 119.865 295.817C118.799 295.817 118.102 296.311 117.774 297.063H117.686V295.909H116.362V303H117.742V298.79ZM126.786 303.138C128.078 303.138 128.586 302.349 128.835 301.897H128.951V303H130.299V293.545H128.918V297.059H128.835C128.586 296.62 128.115 295.817 126.795 295.817C125.082 295.817 123.822 297.169 123.822 299.468C123.822 301.763 125.064 303.138 126.786 303.138ZM127.09 301.961C125.858 301.961 125.216 300.876 125.216 299.455C125.216 298.047 125.844 296.989 127.09 296.989C128.295 296.989 128.941 297.973 128.941 299.455C128.941 300.946 128.281 301.961 127.09 301.961ZM135.325 303.143C136.871 303.143 137.965 302.381 138.279 301.227L136.973 300.992C136.724 301.661 136.123 302.003 135.339 302.003C134.157 302.003 133.363 301.237 133.326 299.87H138.367V299.381C138.367 296.819 136.834 295.817 135.228 295.817C133.252 295.817 131.95 297.322 131.95 299.501C131.95 301.703 133.234 303.143 135.325 303.143ZM133.331 298.836C133.386 297.83 134.115 296.957 135.237 296.957C136.308 296.957 137.01 297.751 137.014 298.836H133.331ZM140.823 295.909H139.309L141.488 299.455L139.281 303H140.795L142.388 300.35L143.985 303H145.495L143.265 299.455L145.476 295.909H143.967L142.388 298.67L140.823 295.909ZM147.803 303.088C148.306 303.088 148.726 302.677 148.726 302.164C148.726 301.661 148.306 301.246 147.803 301.246C147.295 301.246 146.88 301.661 146.88 302.164C146.88 302.677 147.295 303.088 147.803 303.088ZM150.575 303H151.956V298.67C151.956 297.742 152.671 297.072 153.65 297.072C153.936 297.072 154.259 297.123 154.37 297.156V295.835C154.232 295.817 153.959 295.803 153.784 295.803C152.953 295.803 152.242 296.274 151.983 297.036H151.91V295.909H150.575V303ZM160.056 300.059C160.061 301.264 159.165 301.837 158.39 301.837C157.536 301.837 156.945 301.218 156.945 300.253V295.909H155.565V300.419C155.565 302.178 156.529 303.092 157.891 303.092C158.958 303.092 159.683 302.529 160.01 301.772H160.084V303H161.441V295.909H160.056V300.059ZM164.953 290.499H164.03V306.047H164.953V290.499Z" fill="black"/>
<path d="M36.321 343.727H30.8949V351H31.7756V344.509H35.4403V351H36.321V343.727ZM39.589 351.128C40.5407 351.128 41.0378 350.616 41.2083 350.261H41.2509V351H42.089V347.406C42.089 345.673 40.7679 345.474 40.0719 345.474C39.248 345.474 38.3105 345.759 37.8844 346.753L38.6799 347.037C38.8645 346.639 39.3013 346.213 40.1003 346.213C40.8709 346.213 41.2509 346.621 41.2509 347.321V347.349C41.2509 347.754 40.839 347.719 39.8446 347.847C38.8326 347.978 37.7282 348.202 37.7282 349.452C37.7282 350.517 38.552 351.128 39.589 351.128ZM39.7168 350.375C39.0492 350.375 38.5662 350.077 38.5662 349.494C38.5662 348.855 39.1486 348.656 39.802 348.571C40.1571 348.528 41.1088 348.429 41.2509 348.259V349.026C41.2509 349.707 40.7111 350.375 39.7168 350.375ZM43.6186 353.045H44.4567V350.162H44.5277C44.7124 350.46 45.0675 351.114 46.1186 351.114C47.4822 351.114 48.4339 350.02 48.4339 348.287C48.4339 346.568 47.4822 345.474 46.1044 345.474C45.0391 345.474 44.7124 346.128 44.5277 346.412H44.4283V345.545H43.6186V353.045ZM44.4425 348.273C44.4425 347.051 44.9822 346.227 46.005 346.227C47.0703 346.227 47.5959 347.122 47.5959 348.273C47.5959 349.438 47.0561 350.361 46.005 350.361C44.9964 350.361 44.4425 349.509 44.4425 348.273ZM51.9283 351.114C53.4055 351.114 54.3999 349.991 54.3999 348.301C54.3999 346.597 53.4055 345.474 51.9283 345.474C50.451 345.474 49.4567 346.597 49.4567 348.301C49.4567 349.991 50.451 351.114 51.9283 351.114ZM51.9283 350.361C50.8061 350.361 50.2947 349.395 50.2947 348.301C50.2947 347.207 50.8061 346.227 51.9283 346.227C53.0504 346.227 53.5618 347.207 53.5618 348.301C53.5618 349.395 53.0504 350.361 51.9283 350.361ZM55.1962 351H55.4803C56.6877 351 57.0357 350.062 57.1138 348.273L57.199 346.327H59.2019V351H60.04V345.545H56.4036L56.3042 347.96C56.2331 349.793 56.0485 350.219 55.3951 350.219H55.1962V351ZM62.4157 347.52V345.545H61.5776V351H63.8645C65.1429 351 65.839 350.219 65.839 349.239C65.839 348.244 65.1429 347.52 63.8645 347.52H62.4157ZM62.4157 348.301H63.8645C64.5286 348.301 65.0009 348.706 65.0009 349.281C65.0009 349.832 64.5286 350.219 63.8645 350.219H62.4157V348.301Z" fill="#A0A0A0"/>
</g>
<defs>
<clipPath id="clip0_730_6990">
<rect width="320" height="780" fill="white"/>
</clipPath>
</defs>
</svg>
